HIERARCHY
ROOT joint_0
{
	OFFSET 0.000000 0.000000 0.000000
	CHANNELS 6 Xposition Yposition Zposition Zrotation Yrotation Xrotation 
	JOINT joint_1
	{
		OFFSET 6.579712 -2.778931 100.531982
		CHANNELS 3 Zrotation Yrotation Xrotation
		JOINT joint_2
		{
			OFFSET -3.313232 -1.302856 91.974976
			CHANNELS 3 Zrotation Yrotation Xrotation
			JOINT joint_3
			{
				OFFSET -3.421509 -1.641846 91.864014
				CHANNELS 3 Zrotation Yrotation Xrotation
				JOINT joint_4
				{
					OFFSET 7.697388 -4.642578 123.278931
					CHANNELS 3 Zrotation Yrotation Xrotation
					JOINT joint_5
					{
						OFFSET 24.842529 -5.941528 79.695068
						CHANNELS 3 Zrotation Yrotation Xrotation
						End Site
						{
							OFFSET 0.000000 0.000000 0.000000
						}
					}
				}
				JOINT joint_6
				{
					OFFSET -0.159668 -29.112976 68.364014
					CHANNELS 3 Zrotation Yrotation Xrotation
					JOINT joint_7
					{
						OFFSET -18.356079 -115.987061 -20.069092
						CHANNELS 3 Zrotation Yrotation Xrotation
						JOINT joint_8
						{
							OFFSET 31.719482 -11.733276 -267.170898
							CHANNELS 3 Zrotation Yrotation Xrotation
							JOINT joint_9
							{
								OFFSET 29.329956 -5.879517 -234.654053
								CHANNELS 3 Zrotation Yrotation Xrotation
								End Site
								{
									OFFSET 0.000000 0.000000 0.000000
								}
							}
						}
					}
				}
				JOINT joint_10
				{
					OFFSET 8.802979 23.897949 69.798950
					CHANNELS 3 Zrotation Yrotation Xrotation
					JOINT joint_11
					{
						OFFSET 21.159058 115.524292 -19.981934
						CHANNELS 3 Zrotation Yrotation Xrotation
						JOINT joint_12
						{
							OFFSET 18.809204 5.403442 -268.593018
							CHANNELS 3 Zrotation Yrotation Xrotation
							JOINT joint_13
							{
								OFFSET 20.807861 0.421265 -235.639038
								CHANNELS 3 Zrotation Yrotation Xrotation
								End Site
								{
									OFFSET 0.000000 0.000000 0.000000
								}
							}
						}
					}
				}
			}
		}
	}
	JOINT joint_14
	{
		OFFSET -9.713379 -79.513916 -99.348022
		CHANNELS 3 Zrotation Yrotation Xrotation
		JOINT joint_15
		{
			OFFSET -40.607788 -6.518372 -502.938019
			CHANNELS 3 Zrotation Yrotation Xrotation
			JOINT joint_16
			{
				OFFSET -19.807617 -7.437378 -399.590012
				CHANNELS 3 Zrotation Yrotation Xrotation
				JOINT joint_17
				{
					OFFSET 171.701660 -44.751282 -77.782000
					CHANNELS 3 Zrotation Yrotation Xrotation
					End Site
					{
						OFFSET 0.000000 0.000000 0.000000
					}
				}
			}
		}
	}
	JOINT joint_18
	{
		OFFSET 17.854858 79.618652 -98.128052
		CHANNELS 3 Zrotation Yrotation Xrotation
		JOINT joint_19
		{
			OFFSET -24.848877 16.861816 -503.722992
			CHANNELS 3 Zrotation Yrotation Xrotation
			JOINT joint_20
			{
				OFFSET -30.162476 14.470093 -398.750008
				CHANNELS 3 Zrotation Yrotation Xrotation
				JOINT joint_21
				{
					OFFSET 176.096680 -10.987549 -80.021000
					CHANNELS 3 Zrotation Yrotation Xrotation
					End Site
					{
						OFFSET 0.000000 0.000000 0.000000
					}
				}
			}
		}
	}
}
MOTION
Frames: 15
Frame Time: 0.016667
-1598.062378 952.206238 1097.079956 -2.531974 -1.003724 -0.347070 -0.974985 0.878134 -0.088703 -0.986703 -0.113435 -0.027280 -0.979491 0.202963 0.012601 -0.033072 -0.020806 0.101368 0.000000 0.000000 0.000000 -0.240322 0.677170 -0.218397 -0.079927 0.671729 -0.360938 -0.036709 -0.634024 -0.444843 0.000000 0.000000 0.000000 -0.106615 0.286995 1.111558 0.034658 0.687934 -0.941606 0.118972 -2.931205 1.298336 0.000000 0.000000 0.000000 0.590262 1.169364 -2.023894 0.270798 -0.488464 2.144062 0.351733 0.185969 0.207640 0.000000 0.000000 0.000000 1.737181 0.691330 2.492000 1.939200 1.453777 -1.062571 1.709398 -1.224596 0.699011 0.000000 0.000000 0.000000 
-1597.946777 952.302734 1097.032959 -2.561072 -1.008484 -0.354864 -0.978521 0.863079 -0.081805 -0.990364 -0.112078 -0.030629 -0.982996 0.202176 0.014426 -0.032377 -0.001622 0.103729 0.000000 0.000000 0.000000 -0.243270 0.673821 -0.199735 -0.082526 0.674639 -0.382290 -0.035755 -0.635640 -0.437752 0.000000 0.000000 0.000000 -0.110679 0.290191 1.102089 0.034548 0.690737 -0.945232 0.119442 -2.929841 1.303239 0.000000 0.000000 0.000000 0.603420 1.175639 -2.027914 0.282822 -0.486437 2.154052 0.363753 0.193552 0.215054 0.000000 0.000000 0.000000 1.745566 0.702711 2.496038 1.947826 1.467771 -1.062239 1.716216 -1.259031 0.699953 0.000000 0.000000 0.000000 
-1597.838257 952.401245 1096.987061 -2.589515 -1.010735 -0.361702 -0.982734 0.845500 -0.073779 -0.994708 -0.111886 -0.033579 -0.987183 0.201847 0.015919 -0.032021 0.018520 0.107410 0.000000 0.000000 0.000000 -0.244287 0.672796 -0.180381 -0.084982 0.680022 -0.401922 -0.034984 -0.634889 -0.431563 0.000000 0.000000 0.000000 -0.109089 0.294756 1.093952 0.034294 0.694952 -0.953208 0.120043 -2.932678 1.309383 0.000000 0.000000 0.000000 0.616676 1.178707 -2.033024 0.294831 -0.484279 2.163781 0.375715 0.202246 0.222732 0.000000 0.000000 0.000000 1.753935 0.711893 2.499162 1.956428 1.479291 -1.062889 1.723090 -1.291369 0.701053 0.000000 0.000000 0.000000 
-1597.744751 952.501648 1096.941040 -2.615022 -1.014536 -0.369179 -0.986742 0.831165 -0.063229 -0.998985 -0.111176 -0.036827 -0.991286 0.200845 0.018117 -0.032019 0.036047 0.111605 0.000000 0.000000 0.000000 -0.245561 0.673079 -0.161826 -0.087171 0.686086 -0.418959 -0.034276 -0.634909 -0.426061 0.000000 0.000000 0.000000 -0.109266 0.299130 1.083565 0.034162 0.698312 -0.958041 0.120431 -2.934278 1.313294 0.000000 0.000000 0.000000 0.628897 1.182708 -2.037220 0.305931 -0.481918 2.173056 0.386752 0.211582 0.230158 0.000000 0.000000 0.000000 1.761098 0.720491 2.503196 1.963982 1.493050 -1.063806 1.728843 -1.324037 0.701623 0.000000 0.000000 0.000000 
-1597.672119 952.604004 1096.895020 -2.637004 -1.021147 -0.377916 -0.990689 0.821954 -0.049347 -1.003387 -0.109311 -0.040538 -0.995489 0.200293 0.020854 -0.032926 0.045869 0.116877 0.000000 0.000000 0.000000 -0.243526 0.673840 -0.143588 -0.088961 0.692508 -0.432349 -0.033803 -0.635340 -0.422540 0.000000 0.000000 0.000000 -0.110801 0.302076 1.069821 0.034231 0.698980 -0.957860 0.120573 -2.934273 1.314606 0.000000 0.000000 0.000000 0.639836 1.188458 -2.040027 0.315875 -0.478693 2.182386 0.396640 0.222198 0.237397 0.000000 0.000000 0.000000 1.766714 0.728573 2.508925 1.970252 1.511051 -1.065051 1.733144 -1.358141 0.701444 0.000000 0.000000 0.000000 
-1597.614624 952.707214 1096.849976 -2.655177 -1.028802 -0.387033 -0.995064 0.815653 -0.033502 -1.008338 -0.107667 -0.044414 -1.000218 0.199855 0.023871 -0.034363 0.052773 0.123160 0.000000 0.000000 0.000000 -0.241066 0.675378 -0.124833 -0.090506 0.699460 -0.443451 -0.033510 -0.635664 -0.420429 0.000000 0.000000 0.000000 -0.112159 0.304643 1.054218 0.034393 0.698351 -0.954629 0.120507 -2.932465 1.313800 0.000000 0.000000 0.000000 0.649445 1.194704 -2.042281 0.324538 -0.475316 2.191791 0.405256 0.233640 0.244277 0.000000 0.000000 0.000000 1.770821 0.735510 2.515201 1.975145 1.530882 -1.066294 1.736059 -1.391948 0.700656 0.000000 0.000000 0.000000 
-1597.565063 952.813477 1096.805054 -2.673854 -1.035859 -0.396462 -0.999553 0.808856 -0.015066 -1.013534 -0.106098 -0.049607 -1.005128 0.199472 0.027197 -0.035882 0.059828 0.129740 0.000000 0.000000 0.000000 -0.237544 0.676426 -0.106361 -0.092101 0.706124 -0.454906 -0.033131 -0.637395 -0.417975 0.000000 0.000000 0.000000 -0.113885 0.308198 1.039374 0.034655 0.698679 -0.950020 0.120453 -2.929911 1.313137 0.000000 0.000000 0.000000 0.659338 1.200129 -2.044199 0.333559 -0.472932 2.200639 0.414150 0.246034 0.251529 0.000000 0.000000 0.000000 1.775149 0.742070 2.521940 1.980278 1.549109 -1.068334 1.739245 -1.424416 0.700074 0.000000 0.000000 0.000000 
-1597.518555 952.921692 1096.760986 -2.693185 -1.041904 -0.405651 -1.004388 0.800658 0.004093 -1.019077 -0.105851 -0.054156 -1.010395 0.199576 0.030074 -0.037033 0.068832 0.135603 0.000000 0.000000 0.000000 -0.232916 0.677056 -0.088375 -0.093715 0.712494 -0.466398 -0.032628 -0.641095 -0.415001 0.000000 0.000000 0.000000 -0.115914 0.312923 1.025849 0.034998 0.700001 -0.942742 0.120252 -2.923726 1.311065 0.000000 0.000000 0.000000 0.669567 1.204895 -2.046460 0.342908 -0.471941 2.209325 0.423313 0.259002 0.259054 0.000000 0.000000 0.000000 1.779696 0.749032 2.528568 1.985524 1.563552 -1.071212 1.742695 -1.454080 0.699788 0.000000 0.000000 0.000000 
-1597.479126 953.031860 1096.717041 -2.712268 -1.047374 -0.414962 -1.009496 0.791409 0.024764 -1.024936 -0.104688 -0.059184 -1.015980 0.198834 0.033243 -0.038233 0.079512 0.142028 0.000000 0.000000 0.000000 -0.228658 0.677423 -0.070598 -0.095331 0.718495 -0.477849 -0.032130 -0.646203 -0.412427 0.000000 0.000000 0.000000 -0.118332 0.318725 1.012904 0.035415 0.702304 -0.933935 0.120007 -2.915933 1.308617 0.000000 0.000000 0.000000 0.679591 1.209227 -2.048594 0.352096 -0.472379 2.217761 0.432248 0.273000 0.266743 0.000000 0.000000 0.000000 1.784078 0.755576 2.535432 1.990596 1.576521 -1.074433 1.746034 -1.482658 0.699519 0.000000 0.000000 0.000000 
-1597.452637 953.148987 1096.672974 -2.731720 -1.053064 -0.423909 -1.014450 0.783276 0.046543 -1.030748 -0.103731 -0.065520 -1.021388 0.199837 0.037665 -0.038910 0.089137 0.146516 0.000000 0.000000 0.000000 -0.225276 0.675278 -0.054030 -0.097054 0.721948 -0.491118 -0.031685 -0.650428 -0.410072 0.000000 0.000000 0.000000 -0.120735 0.324570 0.998561 0.035873 0.704426 -0.925291 0.119900 -2.908917 1.307609 0.000000 0.000000 0.000000 0.689863 1.212832 -2.051827 0.361361 -0.472347 2.226962 0.441330 0.286117 0.274269 0.000000 0.000000 0.000000 1.788247 0.761952 2.541748 1.995423 1.588524 -1.078121 1.749176 -1.509917 0.699244 0.000000 0.000000 0.000000 
-1597.445190 953.273987 1096.630005 -2.751136 -1.059874 -0.432953 -1.020052 0.780741 0.068871 -1.037299 -0.104503 -0.070834 -1.027560 0.201045 0.041508 -0.038920 0.100127 0.149190 0.000000 0.000000 0.000000 -0.222360 0.669408 -0.037113 -0.099048 0.722243 -0.507841 -0.031448 -0.653033 -0.409029 0.000000 0.000000 0.000000 -0.120679 0.330847 0.982157 0.036371 0.706441 -0.918041 0.120177 -2.903566 1.310664 0.000000 0.000000 0.000000 0.699895 1.216125 -2.055782 0.370219 -0.471451 2.237274 0.450100 0.298559 0.281478 0.000000 0.000000 0.000000 1.792050 0.768185 2.547898 1.999891 1.600770 -1.081871 1.751994 -1.535925 0.698901 0.000000 0.000000 0.000000 
-1597.450806 953.404968 1096.586060 -2.770421 -1.067066 -0.441653 -1.025030 0.779702 0.091714 -1.043283 -0.105599 -0.076404 -1.033105 0.203828 0.045776 -0.038896 0.110268 0.151549 0.000000 0.000000 0.000000 -0.223897 0.661201 -0.021232 -0.101030 0.719427 -0.525600 -0.031360 -0.654249 -0.408865 0.000000 0.000000 0.000000 -0.122355 0.336962 0.965037 0.036889 0.708561 -0.911311 0.120575 -2.899039 1.314978 0.000000 0.000000 0.000000 0.710094 1.219102 -2.060659 0.379130 -0.470403 2.247946 0.458961 0.310415 0.288575 0.000000 0.000000 0.000000 1.795640 0.774190 2.553543 2.004126 1.612537 -1.085904 1.754622 -1.560663 0.698550 0.000000 0.000000 0.000000 
-1597.465332 953.539917 1096.541992 -2.789879 -1.074024 -0.450490 -1.030112 0.777510 0.115523 -1.049383 -0.106090 -0.082074 -1.038790 0.205504 0.050178 -0.038139 0.121907 0.151912 0.000000 0.000000 0.000000 -0.221625 0.653830 -0.006402 -0.103361 0.718352 -0.545586 -0.031004 -0.657435 -0.407004 0.000000 0.000000 0.000000 -0.122056 0.344471 0.946535 0.037482 0.711170 -0.902848 0.120807 -2.894010 1.317541 0.000000 0.000000 0.000000 0.719933 1.221354 -2.065977 0.387559 -0.469750 2.259591 0.467366 0.322932 0.295638 0.000000 0.000000 0.000000 1.798996 0.779728 2.559207 2.008118 1.623498 -1.090036 1.757066 -1.584387 0.698180 0.000000 0.000000 0.000000 
-1597.484009 953.678833 1096.495972 -2.810337 -1.080797 -0.459186 -1.034673 0.771408 0.140534 -1.054953 -0.104958 -0.088504 -1.043991 0.205394 0.054184 -0.037256 0.134985 0.152215 0.000000 0.000000 0.000000 -0.216173 0.648861 0.006035 -0.105900 0.719984 -0.566215 -0.030356 -0.663315 -0.403413 0.000000 0.000000 0.000000 -0.119716 0.353991 0.928785 0.038139 0.715142 -0.891919 0.120546 -2.888774 1.314857 0.000000 0.000000 0.000000 0.730117 1.223278 -2.072120 0.396192 -0.469509 2.272119 0.476016 0.334999 0.302693 0.000000 0.000000 0.000000 1.802659 0.785581 2.564730 2.012375 1.633020 -1.094694 1.759787 -1.607710 0.697961 0.000000 0.000000 0.000000 
-1597.511597 953.821716 1096.448975 -2.831010 -1.087204 -0.467939 -1.038895 0.763285 0.165763 -1.060115 -0.102387 -0.094160 -1.048826 0.204866 0.058740 -0.035676 0.147024 0.150021 0.000000 0.000000 0.000000 -0.208746 0.644414 0.016626 -0.108680 0.722498 -0.588555 -0.029496 -0.670128 -0.398310 0.000000 0.000000 0.000000 -0.116155 0.364361 0.909211 0.038852 0.719169 -0.879584 0.120155 -2.883110 1.310812 0.000000 0.000000 0.000000 0.740213 1.224445 -2.078774 0.404634 -0.469787 2.285331 0.484487 0.347512 0.309784 0.000000 0.000000 0.000000 1.806103 0.790724 2.570183 2.016414 1.641887 -1.099464 1.762350 -1.629802 0.697747 0.000000 0.000000 0.000000 
